{"title":"Asian Deep Dish Orgy (2013)[DVDRIP][.MP4]","magnet":"magnet:?xt=urn:btih:f6d326907333311eb9c94f79c20a881477c4273a&dn=Asian+Deep+Dish+Orgy+%282013%29%5BDVDRIP%5D%5B.MP4%5D&tr=udp%3A%2F%2Ftracker.leechers-paradise.org%3A6969&tr=udp%3A%2F%2Fzer0day.ch%3A1337&tr=udp%3A%2F%2Fopen.demonii.com%3A1337&tr=udp%3A%2F%2Ftracker.coppersurfer.tk%3A6969&tr=udp%3A%2F%2Fexodus.desync.com%3A6969","uploader":"firmainko","categoryP":"porno","categoryS":"filme","size":"899747434","seeders":"112","leechers":"44","description":"Asian Deep Dish Orgy (2013)[DVDRIP][.MP4]\r\n\r\nScreen:\r\n <a href=\"\nhttp://picbank.tk/share-BD4E_59A55F94.html\" rel=\"nofollow\" target=\"_NEW\">\nhttp://picbank.tk/share-BD4E_59A55F94.html</a>\r\n <a href=\"\nhttp://picbank.tk/share-0813_59A55F94.html\" rel=\"nofollow\" target=\"_NEW\">\nhttp://picbank.tk/share-0813_59A55F94.html</a>\r\n <a href=\"\nhttp://picbank.tk/share-8402_59A55F94.html\" rel=\"nofollow\" target=\"_NEW\">\nhttp://picbank.tk/share-8402_59A55F94.html</a>\r\n <a href=\"\nhttp://picbank.tk/share-276A_59A55F94.html\" rel=\"nofollow\" target=\"_NEW\">\nhttp://picbank.tk/share-276A_59A55F94.html</a>\r\n\r\nCOVER:\r\n <a href=\"\nhttp://picbank.tk/share-B10D_59A55F94.html\" rel=\"nofollow\" target=\"_NEW\">\nhttp://picbank.tk/share-B10D_59A55F94.html</a>\r\n\r\nFile Size: 858 MB | Resolution: 704x394 | Duration: 01:19:30 | Format: mp4\r\n\r\nThey supply the pussy, we supply the sauce!\r\n\r\nCast: Cindy Starfall, Jessica Bangkok, Mia Lelani, Mia Rider, Gia Grace, Richie Calhoun, Otto Bauer, Bradley Remington, Otto Bauer\r\nCategories: All Sex, Asian, Orgy\r\nLength: 1 hrs. 20 mins.\r\nRating: XXX\r\nReleased: May 13 2013\r\nProduction Year: 2013\r\nStudio: Hustler\r\nNumber of Discs: 1\r\n\r\nFormat : MPEG-4\r\nFormat profile : Base Media\r\nCodec ID : isom\r\nFile size : 858 MiB\r\nDuration : 1h 19mn\r\nOverall bit rate mode : Variable\r\nOverall bit rate : 1 509 Kbps\r\n\r\nVideo\r\nID : 1\r\nFormat : AVC\r\nFormat/Info : Advanced Video Codec\r\nFormat profile : <a href=\"/cdn-cgi/l/email-protection\" class=\"__cf_email__\" data-cfemail=\"98d0f1fff0d8d4abb6a9\">[email&#xA0;protected]</a>\r\nFormat settings, CABAC : Yes\r\nFormat settings, ReFrames : 5 frames\r\nCodec ID : avc1\r\nCodec ID/Info : Advanced Video Coding\r\nDuration : 1h 19mn\r\nBit rate : 1 385 Kbps\r\nMaximum bit rate : 2 867 Kbps\r\nWidth : 704 pixels\r\nHeight : 394 pixels\r\nDisplay aspect ratio : 16:9\r\nFrame rate mode : Constant\r\nFrame rate : 29.970 fps\r\nColor space : YUV\r\nChroma subsampling : 4:2:0\r\nBit depth : 8 bits\r\nScan type : Progressive\r\nBits/(Pixel*Frame) : 0.167\r\nStream size : 788 MiB (92%)\r\n\r\nAudio\r\nID : 2\r\nFormat : AAC\r\nFormat/Info : Advanced Audio Codec\r\nFormat profile : LC\r\nCodec ID : 40\r\nDuration : 1h 19mn\r\nBit rate mode : Variable\r\nBit rate : 119 Kbps\r\nMaximum bit rate : 138 Kbps\r\nChannel(s) : 2 channels\r\nChannel positions : Front: L R\r\nSampling rate : 48.0 KHz\r\nCompression mode : Lossy\r\nStream size : 67.8 MiB (8%)","last_updated":"2017-08-30T12:09:40.577Z","parsed":{"xt":"urn:btih:f6d326907333311eb9c94f79c20a881477c4273a","dn":"Asian Deep Dish Orgy (2013)[DVDRIP][.MP4]","tr":["udp://exodus.desync.com:6969","udp://open.demonii.com:1337","udp://tracker.coppersurfer.tk:6969","udp://tracker.leechers-paradise.org:6969","udp://zer0day.ch:1337"],"infoHash":"f6d326907333311eb9c94f79c20a881477c4273a","infoHashBuffer":{"type":"Buffer","data":[246,211,38,144,115,51,49,30,185,201,79,121,194,10,136,20,119,196,39,58]},"name":"Asian Deep Dish Orgy (2013)[DVDRIP][.MP4]","announce":["udp://exodus.desync.com:6969","udp://open.demonii.com:1337","udp://tracker.coppersurfer.tk:6969","udp://tracker.leechers-paradise.org:6969","udp://zer0day.ch:1337"],"urlList":[]}}